# xmcd
#
# Track frame offsets:
#	150
#	25950
#	47800
#	65145
#	104500
#	120615
#	160215
#	193075
#
# Disc length: 3241 seconds
#
# Revision: 1
# Processed by: cddbd v1.5PL3 Copyright (c) Steve Scherf et al.
# Submitted via: audiograbber 1.82.01
#
DISCID=720ca708
DTITLE=Kenny Wayne Shepherd and Double Trouble - 2000-12-02 - The Showbox,.Seattl
DTITLE=e,Washington - Disc 1
DYEAR=1900
DGENRE=
TTITLE0=Kenny Wayne Shepherd and Double Trouble - So Excited
TTITLE1=Kenny Wayne Shepherd and Double Trouble - I Dont Live Today
TTITLE2=Kenny Wayne Shepherd and Double Trouble - Them Changes
TTITLE3=Kenny Wayne Shepherd and Double Trouble - Shame,Shame,Shame
TTITLE4=Kenny Wayne Shepherd and Double Trouble - The Wind Crys Mary
TTITLE5=Kenny Wayne Shepherd and Double Trouble - Leaving You ( Commit A Crime )
TTITLE6=Kenny Wayne Shepherd and Double Trouble - Voodoo Chile
TTITLE7=Kenny Wayne Shepherd and Double Trouble - Voodoo Chile ( Slight Return )
EXTD=
EXTT0=
EXTT1=
EXTT2=
EXTT3=
EXTT4=
EXTT5=
EXTT6=
EXTT7=
PLAYORDER=
